<svg id="Layer_2" data-name="Layer 2" xmlns="http://www.w3.org/2000/svg" viewBox="0 0 233.15 180.7"><defs><style>.cls-1{fill:#fff;}</style></defs><title>icon_browse_specialist_blue</title><path class="cls-1" d="M213.31,142.71V37c0-4.19-4.28-7.93-8.47-7.93h-48c1.46,0,2.26,10.12,2.75,10.12h43.56V140.37H30.84V39.16H75.53C76,39.16,76.81,29,78.26,29H28.51A8.09,8.09,0,0,0,20.7,37V142.71L0.43,164v8.79s-0.34,8.07,7.24,8.07h218c7.54,0,7.88-8.07,7.88-8.07V164Z" transform="translate(-0.42 -0.15)"/><path class="cls-1" d="M141.86,96.94c4,3.18,35.07,13,42.24,18.46s11.17,57.94,11.17,57.94H40.3s4-52.52,11.17-57.94,38.25-15.28,42.24-18.46l7.81,23.31,16.61-12.72,15.6,12.72Z" transform="translate(-0.42 -0.15)"/><path class="cls-1" d="M105,20.22l8.2-.12c3.27,6.63,12.61,17.35,38.6,14.89-3.34-19.9-17.3-34.84-34-34.84-17,0-31.13,15.4-34.19,35.8C97.32,36.66,104.93,20.39,105,20.22Z" transform="translate(-0.42 -0.15)"/><path class="cls-1" d="M109.34,30.58c-4.43,6.19-12.63,14.49-24.74,14.49-0.52,0-1,0-1.57-.06,0.34,24,15.76,43.23,34.76,43.23,19.21,0,34.79-19.73,34.79-44.07V44C128.19,46.31,115.56,37.9,109.34,30.58Z" transform="translate(-0.42 -0.15)"/></svg>