<svg xmlns="http://www.w3.org/2000/svg" width="22.516" height="22.945"><path fill="#E01D3C" d="M22.516 22.945L14.424 8.536l.279-7.257A1.18 1.18 0 0 0 13.523 0H8.93a1.173 1.173 0 0 0-1.184 1.227l.32 7.355L0 22.945h22.516z"/><path fill="#FFF" d="M8.93 1.175h4.592l-.48 12.468H9.475L8.93 1.175zm2.293 18.899c.846 0 1.496-.246 1.955-.741.455-.499.686-1.111.686-1.831 0-.723-.223-1.329-.668-1.827-.445-.494-1.102-.749-1.973-.749-.842 0-1.482.255-1.914.749-.439.498-.658 1.104-.658 1.827 0 .72.219 1.332.658 1.831.431.495 1.072.741 1.914.741"/></svg>